<svg width="302" height="302" xmlns="http://www.w3.org/2000/svg" xmlns:xlink="http://www.w3.org/1999/xlink" overflow="hidden"><defs><linearGradient x1="151" y1="29" x2="151" y2="273" gradientUnits="userSpaceOnUse" spreadMethod="reflect" id="fill0"><stop offset="0" stop-color="#22D9DC"/><stop offset="0.0108696" stop-color="#23D8DC"/><stop offset="0.0217391" stop-color="#24D8DC"/><stop offset="0.0326087" stop-color="#25D8DC"/><stop offset="0.0434783" stop-color="#26D8DD"/><stop offset="0.0543478" stop-color="#27D8DD"/><stop offset="0.0652174" stop-color="#29D8DD"/><stop offset="0.076087" stop-color="#2AD8DE"/><stop offset="0.0869565" stop-color="#2BD8DE"/><stop offset="0.0978261" stop-color="#2CD7DE"/><stop offset="0.108696" stop-color="#2DD7DF"/><stop offset="0.119565" stop-color="#2ED7DF"/><stop offset="0.130435" stop-color="#2FD6DF"/><stop offset="0.141304" stop-color="#30D6DF"/><stop offset="0.152174" stop-color="#31D6E0"/><stop offset="0.163043" stop-color="#33D5E0"/><stop offset="0.173913" stop-color="#34D5E0"/><stop offset="0.184783" stop-color="#35D5E1"/><stop offset="0.195652" stop-color="#36D4E1"/><stop offset="0.206522" stop-color="#37D4E1"/><stop offset="0.217391" stop-color="#38D3E1"/><stop offset="0.228261" stop-color="#39D3E2"/><stop offset="0.23913" stop-color="#3AD2E2"/><stop offset="0.25" stop-color="#3BD2E2"/><stop offset="0.26087" stop-color="#3BD1E2"/><stop offset="0.271739" stop-color="#3CD0E3"/><stop offset="0.282609" stop-color="#3DD0E3"/><stop offset="0.293478" stop-color="#3ECFE3"/><stop offset="0.304348" stop-color="#3FCFE3"/><stop offset="0.315217" stop-color="#40CEE4"/><stop offset="0.326087" stop-color="#41CDE4"/><stop offset="0.336957" stop-color="#42CCE4"/><stop offset="0.347826" stop-color="#43CCE4"/><stop offset="0.358696" stop-color="#43CBE5"/><stop offset="0.369565" stop-color="#44CAE5"/><stop offset="0.380435" stop-color="#45C9E5"/><stop offset="0.391304" stop-color="#46C8E5"/><stop offset="0.402174" stop-color="#47C8E5"/><stop offset="0.413043" stop-color="#47C7E6"/><stop offset="0.423913" stop-color="#48C6E6"/><stop offset="0.434783" stop-color="#49C5E6"/><stop offset="0.445652" stop-color="#4AC4E6"/><stop offset="0.456522" stop-color="#4AC3E6"/><stop offset="0.467391" stop-color="#4BC2E7"/><stop offset="0.478261" stop-color="#4CC1E7"/><stop offset="0.48913" stop-color="#4CC0E7"/><stop offset="0.5" stop-color="#4DBFE7"/><stop offset="0.51087" stop-color="#4EBEE7"/><stop offset="0.521739" stop-color="#4EBDE7"/><stop offset="0.532609" stop-color="#4FBCE8"/><stop offset="0.543478" stop-color="#50BBE8"/><stop offset="0.554348" stop-color="#50BAE8"/><stop offset="0.565217" stop-color="#51B9E8"/><stop offset="0.576087" stop-color="#51B7E8"/><stop offset="0.586957" stop-color="#52B6E8"/><stop offset="0.597826" stop-color="#53B5E9"/><stop offset="0.608696" stop-color="#53B4E9"/><stop offset="0.619565" stop-color="#54B3E9"/><stop offset="0.630435" stop-color="#54B1E9"/><stop offset="0.641304" stop-color="#55B0E9"/><stop offset="0.652174" stop-color="#55AFE9"/><stop offset="0.663043" stop-color="#56ADE9"/><stop offset="0.673913" stop-color="#56ACEA"/><stop offset="0.684783" stop-color="#57ABEA"/><stop offset="0.695652" stop-color="#57A9EA"/><stop offset="0.706522" stop-color="#57A8EA"/><stop offset="0.717391" stop-color="#58A7EA"/><stop offset="0.728261" stop-color="#58A5EA"/><stop offset="0.73913" stop-color="#59A4EA"/><stop offset="0.75" stop-color="#59A2EA"/><stop offset="0.76087" stop-color="#59A1EA"/><stop offset="0.771739" stop-color="#5A9FEA"/><stop offset="0.782609" stop-color="#5A9EEB"/><stop offset="0.793478" stop-color="#5A9CEB"/><stop offset="0.804348" stop-color="#5B9BEB"/><stop offset="0.815217" stop-color="#5B99EB"/><stop offset="0.826087" stop-color="#5B98EB"/><stop offset="0.836957" stop-color="#5B96EB"/><stop offset="0.847826" stop-color="#5C94EB"/><stop offset="0.858696" stop-color="#5C93EB"/><stop offset="0.869565" stop-color="#5C91EB"/><stop offset="0.880435" stop-color="#5C8FEB"/><stop offset="0.891304" stop-color="#5D8EEB"/><stop offset="0.902174" stop-color="#5D8CEB"/><stop offset="0.913043" stop-color="#5D8AEB"/><stop offset="0.923913" stop-color="#5D88EB"/><stop offset="0.934783" stop-color="#5D87EB"/><stop offset="0.945652" stop-color="#5D85EB"/><stop offset="0.956522" stop-color="#5D83EB"/><stop offset="0.967391" stop-color="#5D81EB"/><stop offset="0.978261" stop-color="#5D7FEB"/><stop offset="0.98913" stop-color="#5D7DEB"/><stop offset="1" stop-color="#5E7CEC"/></linearGradient></defs><g><rect x="0" y="0" width="302" height="302" fill="#FFFFFF"/><path d="M208.001 263.541 288.806 263.541 289.014 263.979C290.627 267.593 291.978 270.692 293 272.57L218.845 270.002C216.632 271.071 214.033 269.888 211.366 267.398ZM199.937 250.47 282.41 250.47 283.458 252.303 286.117 257.89 204.101 257.89 203.481 256.953C202.238 254.875 201.059 252.705 199.981 250.564ZM194.115 235.236 269.276 236.706C271.845 237.027 274.356 238.96 276.742 241.795L278.913 244.819 197.316 244.819 197.095 244.342C195.428 240.407 194.329 237.057 194.115 235.236ZM205.701 103.623 206.905 109.963C207.329 114.372 206.806 118.529 204.844 122.095L181.136 169.318 232.891 169.417C235.424 169.669 237.867 171.464 240.167 174.127L242.152 176.842 176.988 176.842 174.099 182.493 245.693 182.493 246.584 184.04 249.37 189.913 170.306 189.913 167.417 195.564 252.037 195.564 253.913 199.783C254.542 201.168 255.102 202.346 255.587 203.233L163.975 203.5 134.021 263.166C131.655 266.874 128.617 269.255 125.174 270.747L121.867 271.737ZM198.237 85.8685 203.172 96.0822 115.008 272.88 113.891 273 105.079 272.682ZM190.817 72.5787C191.654 74.0214 192.624 75.6542 193.664 77.4349L194.992 79.7648 98.9102 272.441 90.385 272.075ZM161.604 29.6193 171.77 29.6963 57.8311 260.135C54.2812 266.749 48.4912 269.985 41.9037 271.477L40.9275 271.617ZM140.339 29.4717 19.2695 272.256 14.7205 272.018C12.6707 271.934 10.7461 271.897 9.00004 271.97L128.134 33.5253C130.327 31.5238 133.278 30.3489 136.689 29.6962ZM148.004 29 155.44 29.3687 34.2266 272.443 25.4941 272.385 146.827 29.0725Z" fill="url(#fill0)" fill-rule="evenodd"/></g></svg>